<?xml version="1.0" standalone="no"?><!DOCTYPE svg PUBLIC "-//W3C//DTD SVG 1.1//EN" "http://www.w3.org/Graphics/SVG/1.1/DTD/svg11.dtd"><svg t="1730870371752" class="icon" viewBox="0 0 1024 1024" version="1.1" xmlns="http://www.w3.org/2000/svg" p-id="4261" width="32" height="32" xmlns:xlink="http://www.w3.org/1999/xlink"><path d="M792.32 461.056v280.32a21.9136 21.9136 0 0 1-1.792 9.1648 140.1856 140.1856 0 1 1-49.152-129.9968V435.5584c0-14.08 11.3664-25.4976 25.4464-25.4976h76.4928a25.4976 25.4976 0 1 1 0 50.9952h-50.9952zM155.2384 53.248c-56.32 0-101.9392 45.6192-101.9392 101.888v713.5744c0 56.32 45.6192 101.9392 101.888 101.9392h713.5744c56.32 0 101.9392-45.6192 101.9392-101.888V155.1872c0-56.32-45.6192-101.9392-101.888-101.9392H155.1872z m0-50.9952h713.5232a152.8832 152.8832 0 0 1 152.9344 152.9344v713.5232a152.8832 152.8832 0 0 1-152.9344 152.9344H155.2384a152.8832 152.8832 0 0 1-152.9344-152.9344V155.2384A152.8832 152.8832 0 0 1 155.2384 2.304z m496.9472 815.5136a89.1904 89.1904 0 1 0-89.2416-89.1904c0 49.2544 39.936 89.1904 89.2416 89.1904z m-63.744-509.696a25.4976 25.4976 0 0 1-25.4976 25.4976h-331.264a25.4976 25.4976 0 0 1 0-50.9952h331.264c14.08 0 25.4976 11.4176 25.4976 25.4976z m-178.3808 229.376a25.4976 25.4976 0 0 1-25.4976 25.4464H231.68a25.4976 25.4976 0 0 1 0-50.944H384.512c14.08 0 25.4976 11.4176 25.4976 25.4976z" fill="black" p-id="4262"></path></svg>